<?xml version="1.0" encoding="utf-8"?>
<svg xmlns="http://www.w3.org/2000/svg" xmlns:xlink="http://www.w3.org/1999/xlink" version="1.1" id="Capa_1" x="0px" y="0px" viewBox="0 0 190 86" style="enable-background:new 0 0 190 86;" xml:space="preserve">
<style type="text/css">
	.st0{fill:#00589B;}
	.st1{fill:#001D33;}
</style>
<g id="logo-footer" transform="translate(-678.01 -655.054)">
	<g id="Grupo_81" transform="translate(789.577 655.09)">
		<g id="Grupo_77" transform="translate(111.568 0.092)">
			<path id="Trazado_99" class="st0" d="M-68.1,14.2c7.2-0.1,13.8,4.4,16.2,11.3c1.8,4.7,1.7,10-0.3,14.7c-2.4,5.3-6.4,9-12.2,10.3     c-5.8,1.3-10.9-0.2-15.3-4.2c-3.1-2.8-5-6.5-5.6-10.6c-0.9-4.8,0.1-9.8,2.9-13.8c2.6-4.1,6.8-6.8,11.6-7.5     c0.4-0.1,0.9-0.1,1.3-0.1C-69.1,14.2-68.6,14.2-68.1,14.2z M-81.3,32.5c0,1.4,0.2,2.8,0.6,4.1c1.4,4.7,4.3,8.1,9.2,9.6     c3.4,1.1,7.2,0.6,10.2-1.4c3.8-2.5,5.8-6,6.4-10.4c0.4-2.8-0.1-5.7-1.3-8.3c-2.1-4.5-5.7-7.2-10.7-7.7c-3.7-0.4-7.3,0.9-9.9,3.5     C-79.9,24.8-81.3,28.3-81.3,32.5z"></path>
		</g>
		<g id="Grupo_78" transform="translate(47.993)">
			<path id="Trazado_100" class="st0" d="M-26.1,32.7c0.1,4.5-1.6,8.8-4.5,12.3c-2.6,3.1-6.1,5.2-10.1,5.8c-3.9,0.7-8,0-11.4-2     c-3.7-2.1-6.4-5.4-7.9-9.4c-2.1-6-1.6-11.8,1.9-17.1c2.4-3.9,6.3-6.6,10.8-7.5c5.3-1.2,11,0.2,15,3.9c2.8,2.5,4.8,5.8,5.5,9.5     C-26.3,29.6-26.1,31.1-26.1,32.7z M-30.4,32.6c0-1.8-0.3-3.7-0.9-5.4c-1.4-3.8-3.9-6.6-7.7-8c-5-1.8-9.6-0.8-13.5,2.9     c-2.3,2.3-3.8,5.3-4.1,8.5c-0.5,3.4,0.2,6.9,2.1,9.9c2.3,3.7,5.7,5.9,10.1,6.3c3.6,0.3,7.2-1,9.7-3.6     C-31.9,40.5-30.3,36.6-30.4,32.6L-30.4,32.6z"></path>
		</g>
		<g id="Grupo_79" transform="translate(0 1.399)">
			<path id="Trazado_101" class="st0" d="M-42.6,31.3c0-5.7,0-11.5,0-17.2c0-0.4,0.1-0.4,0.4-0.4c4.9,0,9.8,0,14.6,0     c2.1,0,4.2,0.5,6.1,1.5c2.6,1.4,4.4,3.9,4.8,6.8c0.5,2.4,0.2,4.9-0.7,7.2c-1,2.4-3.1,4.2-5.5,5.1c-1.7,0.6-3.4,0.9-5.2,0.8     c-3.3,0-6.4,0-9.7,0c-0.2,0-0.4,0.1-0.4,0.4c0,4.4,0,8.8,0,13.2c0,0.3-0.1,0.4-0.4,0.4c-1.2,0-2.3,0-3.5,0     c-0.4,0-0.4-0.1-0.4-0.4C-42.6,42.8-42.6,37.1-42.6,31.3z M-38.2,24.4c0,2,0,4.1,0,6.1c0,0.3,0.1,0.4,0.4,0.4c3.4,0,6.8,0,10.2,0     c0.8,0,1.5-0.1,2.3-0.2c2.1-0.5,3.6-1.7,4.3-3.7c0.4-1.4,0.5-2.8,0.2-4.2c-0.2-1.2-0.7-2.3-1.7-3.1c-1.2-1.1-2.7-1.7-4.3-1.7     c-3.7-0.1-7.5,0-11.2-0.1c-0.3-0.1-0.4,0.1-0.4,0.3C-38.2,20.3-38.2,22.3-38.2,24.4L-38.2,24.4z"></path>
		</g>
		<g id="Grupo_80" transform="translate(178.466 1.398)">
			<path id="Trazado_102" class="st0" d="M-111.4,31.3c0-5.8,0-11.5,0-17.3c0-0.2,0.1-0.4,0.4-0.4c1.2,0,2.5,0,3.7,0     c0.2,0,0.4,0.1,0.3,0.3c0,0.2,0,0.4,0,0.6c0,10,0,19.9,0,29.8c0,0.4,0.1,0.5,0.4,0.5c2,0,4,0,6,0c0.3,0,0.4,0.1,0.2,0.4     c-0.4,1.2-0.9,2.3-1.2,3.6c-0.1,0.2-0.2,0.3-0.4,0.3c-3,0-6,0-9,0c-0.3,0-0.4-0.1-0.4-0.4C-111.4,42.9-111.4,37.1-111.4,31.3z"></path>
		</g>
	</g>
	<g id="Grupo_91" transform="translate(841.092 724)">
		<g id="Grupo_82" transform="translate(0 3.358)">
			<path id="Trazado_103" class="st1" d="M-56.5-0.7c-0.6,0.1-1.3,0.2-2,0.2c-0.4,0-0.9-0.1-1.2-0.1c-0.3-0.1-0.6-0.2-0.9-0.5     C-60.9-1.4-61-1.7-61.2-2c-0.1-0.4-0.2-0.8-0.2-1.2v-4.9l-1.1-0.1l0.2-2.3h1l0.4-2.9l3-0.2v3.1h2.5l-0.2,2.4h-2.3v4.7     c0,0.1,0,0.2,0.1,0.2c0.1,0.1,0.2,0.1,0.3,0.1c0.1,0,0.2,0,0.4,0c0.1,0,0.3,0,0.5-0.1c0.2-0.1,0.3-0.1,0.5-0.1     c0.1,0,0.3-0.1,0.4-0.1l0.6,2.1C-55.6-1-56.1-0.9-56.5-0.7z"></path>
		</g>
		<g id="Grupo_83" transform="translate(13.769 0.033)">
			<path id="Trazado_104" class="st1" d="M-64.3,2.6h-3.4v-14.7l3.4-0.2v6.2c0.5-0.4,1-0.7,1.5-1c0.5-0.2,1-0.3,1.5-0.3     c0.4,0,0.8,0.1,1.2,0.2c0.3,0.1,0.6,0.3,0.8,0.6c0.2,0.2,0.4,0.6,0.5,0.9c0.1,0.4,0.1,0.9,0.1,1.3v7.2h-3.4v-6.5     c0-0.1,0-0.2,0-0.3c0-0.1-0.1-0.1-0.1-0.2c-0.1-0.1-0.1-0.1-0.2-0.1c-0.1,0-0.2-0.1-0.3-0.1c-0.2,0-0.5,0.1-0.7,0.2     c-0.3,0.2-0.6,0.4-0.8,0.6C-64.3-3.7-64.3,2.6-64.3,2.6z"></path>
		</g>
		<g id="Grupo_84" transform="translate(30.613 7.927)">
			<path id="Trazado_105" class="st1" d="M-68.7-6.4C-68.9-6.2-69-6-69.3-5.8c-0.2,0.1-0.4,0.2-0.6,0.4c-0.2,0.1-0.5,0.2-0.7,0.2     c-0.2,0.1-0.6,0.1-0.8,0.1c-0.4,0-0.7-0.1-1.1-0.2c-0.4-0.1-0.7-0.4-0.9-0.6c-0.2-0.3-0.5-0.6-0.6-1c-0.1-0.4-0.2-0.9-0.2-1.3     c0-0.2,0-0.4,0.1-0.7c0.1-0.2,0.2-0.4,0.3-0.6c0.2-0.2,0.4-0.4,0.6-0.5c0.3-0.2,0.7-0.3,1-0.4c0.5-0.1,1-0.2,1.5-0.3     c0.6-0.1,1.2-0.2,2-0.2v-1c0-0.1,0-0.2-0.1-0.4c0-0.1-0.1-0.2-0.1-0.2c0,0-0.1-0.1-0.1-0.1c-0.1,0-0.2,0-0.4,0     c-0.2,0-0.6,0-0.8,0.1c-0.2,0.1-0.6,0.1-0.8,0.2c-0.6,0.2-1.1,0.4-1.6,0.8l-1.2-2c0.4-0.2,0.7-0.5,1.2-0.7     c0.4-0.2,0.8-0.4,1.2-0.5c0.4-0.1,0.9-0.2,1.4-0.3c0.5-0.1,1-0.1,1.5-0.1c0.6,0,1,0.1,1.5,0.2c0.4,0.1,0.7,0.4,1,0.6     c0.2,0.3,0.4,0.6,0.6,1c0.1,0.4,0.2,0.9,0.2,1.3v4.1c0,0.1,0,0.1,0.1,0.1C-65.2-8-65.1-8-65-7.9c0.1,0.1,0.2,0.1,0.3,0.1     c0.1,0.1,0.3,0.1,0.6,0.1l-0.6,2.5c-0.2,0-0.4,0-0.5,0s-0.3,0-0.4,0c-0.4,0-0.8,0-1.2-0.1c-0.3-0.1-0.6-0.1-0.8-0.2     c-0.2-0.1-0.4-0.2-0.6-0.4C-68.4-6-68.5-6.2-68.7-6.4z M-69.7-9.3c-0.2,0.1-0.4,0.1-0.6,0.1c-0.1,0-0.2,0.1-0.4,0.1     c-0.1,0.1-0.2,0.1-0.2,0.2c-0.1,0.1-0.1,0.1-0.1,0.2c-0.1,0.2,0,0.4,0.1,0.7c0.1,0.1,0.1,0.2,0.2,0.3c0.1,0.1,0.2,0.2,0.2,0.2     c0.1,0.1,0.2,0.1,0.4,0.1c0.1,0,0.3,0,0.4-0.1c0.1,0,0.2-0.1,0.4-0.1c0.1-0.1,0.2-0.1,0.3-0.2c0.1-0.1,0.2-0.1,0.2-0.2v-1.4     C-69.2-9.3-69.4-9.3-69.7-9.3L-69.7-9.3z"></path>
		</g>
		<g id="Grupo_85" transform="translate(47.076 3.358)">
			<path id="Trazado_106" class="st1" d="M-74.7-0.7c-0.6,0.1-1.3,0.2-2,0.2c-0.4,0-0.9-0.1-1.2-0.1c-0.3-0.1-0.6-0.2-0.9-0.5     C-79-1.4-79.2-1.7-79.3-2c-0.1-0.4-0.2-0.8-0.2-1.2v-4.9l-1.1-0.1l0.2-2.3h1l0.4-2.9l3-0.2v3.1h2.5l-0.2,2.4H-76v4.7     c0,0.1,0,0.2,0.1,0.2c0.1,0.1,0.2,0.1,0.3,0.1c0.1,0,0.2,0,0.4,0c0.1,0,0.3,0,0.5-0.1c0.2-0.1,0.3-0.1,0.5-0.1     c0.1,0,0.3-0.1,0.4-0.1l0.6,2.1C-73.7-1-74.2-0.9-74.7-0.7z"></path>
		</g>
		<g id="Grupo_86" transform="translate(66.912)">
			<path id="Trazado_107" class="st1" d="M-81.9-9.7c-0.4-0.1-0.9-0.2-1.4-0.2c-0.1,0-0.2,0-0.2,0c-0.1,0-0.1,0.1-0.1,0.1     c-0.1,0.1-0.1,0.1-0.1,0.2c0,0.1,0,0.2,0,0.3v2.1h2l-0.2,2.4h-1.8v7.3h-3.4v-7.3l-1.1-0.1l0.2-2.3h1V-9c0-0.5,0.1-1,0.2-1.5     c0.1-0.4,0.2-0.7,0.5-1c0.2-0.3,0.6-0.5,1-0.6c0.4-0.1,0.9-0.2,1.5-0.2c0.2,0,0.4,0,0.7,0.1c0.2,0,0.5,0.1,0.7,0.1     c0.2,0.1,0.4,0.1,0.7,0.1c0.2,0.1,0.4,0.1,0.6,0.1L-81.9-9.7z"></path>
		</g>
		<g id="Grupo_87" transform="translate(79.593 0.033)">
			<path id="Trazado_108" class="st1" d="M-89,2.5c-0.2,0.1-0.4,0.1-0.6,0.1s-0.4,0.1-0.6,0.1s-0.4,0-0.6,0c-0.3,0-0.7-0.1-1-0.1     c-0.2-0.1-0.5-0.2-0.7-0.4C-92.7,2-92.9,1.7-93,1.5c-0.1-0.3-0.2-0.6-0.2-1v-12.7l3.4-0.2v12.2c0,0.1,0,0.1,0.1,0.1     C-89.7,0-89.7,0-89.6,0c0.1,0,0.2,0.1,0.4,0.1c0.1,0,0.4,0,0.6,0v2.3C-88.7,2.4-88.9,2.5-89,2.5z"></path>
		</g>
		<g id="Grupo_88" transform="translate(88.246 8.064)">
			<path id="Trazado_109" class="st1" d="M-86.4-10.6c0,0.7-0.1,1.4-0.4,2.1c-0.4,1.3-1.4,2.3-2.6,2.8c-0.7,0.3-1.5,0.4-2.3,0.4     c-0.7,0-1.5-0.1-2.1-0.3c-0.6-0.2-1-0.5-1.5-0.9s-0.7-1-0.9-1.5c-0.2-0.6-0.3-1.4-0.3-2.1s0.1-1.5,0.4-2.1     c0.4-1.2,1.4-2.3,2.6-2.7c0.7-0.2,1.5-0.4,2.2-0.4c0.7,0,1.5,0.1,2.1,0.3c0.6,0.2,1.1,0.5,1.5,0.9c0.4,0.4,0.7,0.9,0.9,1.5     C-86.5-12-86.4-11.3-86.4-10.6z M-90-10.5c0-0.4,0-0.8-0.1-1.2c-0.1-0.3-0.1-0.6-0.2-0.8c-0.2-0.2-0.3-0.3-0.5-0.4     c-0.2-0.1-0.4-0.1-0.7-0.1c-0.4,0-0.9,0.2-1.1,0.6c-0.3,0.6-0.4,1.2-0.4,1.9c0,0.4,0,0.9,0.1,1.4c0.1,0.3,0.1,0.6,0.2,0.9     c0.1,0.2,0.2,0.4,0.4,0.5c0.2,0.1,0.4,0.1,0.7,0.1s0.5-0.1,0.7-0.2c0.2-0.1,0.4-0.3,0.5-0.5c0.1-0.2,0.2-0.6,0.2-0.9     C-90-9.6-90-10-90-10.5L-90-10.5z"></path>
		</g>
		<g id="Grupo_89" transform="translate(105.104 8.425)">
			<path id="Trazado_110" class="st1" d="M-97.6-5.8h-2.7l-2.6-9.7h3.3l1.1,4.9c0,0.2,0.1,0.4,0.1,0.6c0.1,0.2,0.1,0.3,0.1,0.5     c0-0.2,0-0.3,0.1-0.5c0.1-0.2,0.1-0.4,0.1-0.6l1.4-4.9l2.6-0.1l1.2,5c0.1,0.2,0.1,0.4,0.1,0.6c-0.1,0.1-0.2,0.2-0.2,0.3     c0.1,0.1,0.2,0.2,0.3,0.2c0.1-0.1,0.2-0.2,0.2-0.3c0-0.1-0.1-0.2-0.2-0.2c0.1-0.2,0.1-0.4,0.1-0.6l1.2-4.9h2.9l-2.9,9.7h-2.9     l-1.4-5c-0.1-0.2-0.1-0.4-0.1-0.6s-0.1-0.3-0.1-0.5c0,0.2,0,0.3-0.1,0.5c-0.1,0.2-0.1,0.4-0.1,0.6L-97.6-5.8z"></path>
		</g>
		<g id="Grupo_90" transform="translate(128.87 7.96)">
			<path id="Trazado_111" class="st1" d="M-104-8.5c0,0.5-0.1,0.9-0.2,1.4c-0.2,0.4-0.5,0.8-0.8,1c-0.4,0.3-0.9,0.6-1.4,0.7     c-0.6,0.2-1.2,0.2-1.8,0.2c-1.4,0-2.6-0.2-3.9-0.7l0.6-2.5c0.3,0.1,0.6,0.2,0.9,0.3c0.3,0.1,0.6,0.2,0.9,0.2     c0.3,0.1,0.6,0.1,0.9,0.1c0.2,0.1,0.6,0.1,0.8,0.1c0.2,0,0.5-0.1,0.7-0.1c0.1-0.1,0.2-0.2,0.2-0.4c0-0.1,0-0.1-0.1-0.2     c0-0.1-0.1-0.1-0.1-0.2c-0.1-0.1-0.1-0.1-0.2-0.1c-0.1-0.1-0.3-0.1-0.5-0.1c-0.5-0.1-0.9-0.2-1.4-0.4c-0.4-0.1-0.7-0.3-1-0.5     c-0.2-0.1-0.5-0.3-0.7-0.5c-0.2-0.1-0.3-0.3-0.4-0.6c-0.1-0.2-0.2-0.4-0.2-0.6c-0.1-0.2-0.1-0.4-0.1-0.7c0-0.3,0.1-0.7,0.1-1     c0.1-0.3,0.2-0.6,0.4-0.9c0.2-0.2,0.4-0.5,0.6-0.7c0.2-0.2,0.5-0.4,0.8-0.5c0.3-0.1,0.6-0.2,0.9-0.3c0.4,0,0.7-0.1,1-0.1     c0.3,0,0.6,0,0.9,0.1c0.6,0.1,1.2,0.2,1.8,0.4c0.3,0.1,0.7,0.2,1,0.4l-0.8,2.3c-0.2-0.1-0.4-0.2-0.7-0.2     c-0.2-0.1-0.5-0.1-0.7-0.2c-0.2-0.1-0.5-0.1-0.7-0.1c-0.2,0-0.4-0.1-0.6-0.1c-0.2,0-0.4,0.1-0.6,0.1c-0.1,0.1-0.2,0.2-0.2,0.4     c0,0.1,0,0.1,0,0.2c0.1,0.1,0.1,0.2,0.2,0.2c0.2,0.1,0.4,0.2,0.5,0.2c0.2,0.1,0.4,0.1,0.8,0.2c0.5,0.1,1,0.3,1.5,0.5     c0.4,0.1,0.7,0.4,0.9,0.6c0.2,0.2,0.4,0.5,0.5,0.8C-104-9.2-104-8.9-104-8.5z"></path>
		</g>
	</g>
	<g id="Grupo_92" transform="translate(678.009 656.54)">
		<path id="Trazado_112" class="st1" d="M23.9,30.2c1.4,0.7,2.5,1.7,3.3,2.9c1,1.6,1.5,3.4,1.5,5.3c0.1,2.1-0.4,4.1-1.5,5.8    c-1.4,2.2-3.6,3.7-6.2,4.2c-1,0.2-2,0.4-3.1,0.4c-5.7,0-11.4,0-17.1,0c-0.2,0-0.4-0.1-0.4-0.3C0.5,37.1,0.5,25.5,0.5,14    c0-0.3,0.1-0.4,0.4-0.4c5.3,0,10.6,0,15.8,0c2-0.1,4.1,0.3,5.9,1.1c2.6,1.2,4.4,3.6,4.7,6.4c0.3,1.5,0.2,3.1-0.2,4.6    c-0.5,1.7-1.5,3.1-2.8,4.1C24.2,30,24.1,30,24,30.1C24,30.1,23.9,30.1,23.9,30.2z M12.4,42.8c1.4,0,2.8,0,4.2,0    c0.6,0,1.2-0.1,1.7-0.2c1.7-0.2,3-1.5,3.4-3.1c0.2-0.8,0.2-1.7-0.1-2.5c-0.2-1.3-1.2-2.3-2.4-2.8c-0.7-0.3-1.5-0.5-2.4-0.5    c-3.1,0-6.3,0-9.5,0c-0.2,0-0.3,0.1-0.3,0.2c0,2.8,0,5.7,0,8.5c0,0.2,0.1,0.3,0.3,0.3C9.1,42.8,10.8,42.8,12.4,42.8z M12.3,19.8    L12.3,19.8c-1.6,0-3.2,0-4.7,0c-0.3,0-0.4,0.1-0.4,0.4c0,2.3,0,4.7,0,7c0,0.3,0.1,0.4,0.4,0.4c3.1,0,6.1,0,9.2,0    c0.6,0,1.1-0.1,1.7-0.3c2-0.8,3-3.1,2.2-5.1c-0.2-0.7-0.7-1.3-1.3-1.7c-0.6-0.4-1.4-0.7-2.1-0.7C15.6,19.8,13.9,19.8,12.3,19.8    L12.3,19.8z"></path>
	</g>
	<g id="Grupo_93" transform="translate(731.055 655.054)">
		<path id="Trazado_113" class="st1" d="M-6.1,14.3c3,0,5.9,0.9,8.4,2.5c1,0.7,1.9,1.6,2.7,2.6c0.2,0.2,0.2,0.4,0.1,0.6    c-0.7,1.8-1.3,3.7-1.9,5.6c-0.1,0.2-0.2,0.3-0.4,0.3c-0.7,0-1.4,0-2.1,0c-0.1,0-0.2,0.1-0.2-0.2C0.1,23-1.5,21.4-4,20.8    c-2.3-0.6-4.9-0.4-7.1,0.6c-1,0.4-1.8,1.3-2.1,2.3c-0.4,1.2,0.1,2.5,1.1,3.1c1,0.6,2.1,1.1,3.3,1.4c2,0.6,4,0.9,6,1.4    c1.3,0.3,2.6,0.7,3.8,1.2c0.2,0.1,0.3,0.1,0.2,0.4C0.5,33-0.1,35-0.7,36.9c0,0.1,0,0.2-0.2,0.1c-1.8-0.7-3.7-1.3-5.7-1.7    c-2.5-0.4-5-1.1-7.3-2.1c-1.8-0.7-3.3-1.8-4.4-3.4c-1.1-1.6-1.7-3.6-1.6-5.5c0.1-3.9,2-6.5,5.3-8.3c2-1,4.2-1.6,6.4-1.7    C-7.5,14.3-6.8,14.3-6.1,14.3z"></path>
	</g>
	<g id="Grupo_94" transform="translate(729.634 694.935)">
		<path id="Trazado_114" class="st1" d="M-16.1-1.1c1,0,2,0,3,0c0.2,0,0.3-0.1,0.4,0.2c0.1,2.5,1.5,4.1,3.6,5c1.7,0.8,3.6,1,5.5,0.8    c0.5-0.1,0.9-0.1,1.4-0.2C-2,4.8-1.8,4.7-2,4.9C-2.6,7-3.4,9-4,11c0,0.1-0.1,0.2-0.3,0.2c-3,0.1-6-0.6-8.7-1.9    c-3.1-1.6-5.3-4-6.1-7.5c-0.2-0.8-0.3-1.7-0.3-2.6c0-0.2,0.1-0.3,0.3-0.3C-18.1-1.1-17.1-1.1-16.1-1.1L-16.1-1.1z"></path>
	</g>
	<g id="Grupo_95" transform="translate(678.009 725.221)">
		<path id="Trazado_115" class="st0" d="M7.7-10.4l-1.8,0.1v9.2l2,0.1v2.3H0.5V-1l1.9-0.1v-9.2l-1.8-0.1v-2.4h7.2L7.7-10.4z"></path>
	</g>
	<g id="Grupo_96" transform="translate(692.311 731.991)">
		<path id="Trazado_116" class="st0" d="M0.5-5.4v-6.4c0-0.1,0-0.2,0-0.3c-0.1-0.1-0.1-0.2-0.2-0.2c0,0-0.1-0.1-0.1-0.1    c-0.1,0-0.2-0.1-0.3-0.1c-0.2,0-0.5,0.1-0.7,0.2c-0.2,0.1-0.6,0.4-0.8,0.6v6.3h-3.4v-9.8l3-0.2c0.1,0.1,0.1,0.2,0.1,0.3    c0,0.1,0.1,0.2,0.1,0.3c0,0.1,0.1,0.2,0.1,0.4s0.1,0.2,0.1,0.4c0.2-0.2,0.5-0.4,0.7-0.6c0.2-0.2,0.5-0.3,0.8-0.4    c0.2-0.1,0.6-0.2,0.8-0.3c0.2-0.1,0.5-0.1,0.7-0.1c0.4,0,0.8,0.1,1.2,0.2c0.3,0.1,0.6,0.3,0.8,0.6c0.2,0.2,0.4,0.5,0.5,0.9    c0.1,0.4,0.1,0.9,0.1,1.3v7.2L0.5-5.4z"></path>
	</g>
	<g id="Grupo_97" transform="translate(710.056 731.991)">
		<path id="Trazado_117" class="st0" d="M-6.3-5.4v-6.4c0-0.1,0-0.2,0-0.3c-0.1-0.1-0.1-0.2-0.2-0.2c0,0-0.1-0.1-0.1-0.1    c-0.1,0-0.2-0.1-0.3-0.1c-0.2,0-0.5,0.1-0.7,0.2c-0.2,0.1-0.6,0.4-0.8,0.6v6.3h-3.4v-9.8l3-0.2c0.1,0.1,0.1,0.2,0.1,0.3    c0,0.1,0.1,0.2,0.1,0.3c0,0.1,0.1,0.2,0.1,0.4s0.1,0.2,0.1,0.4c0.2-0.2,0.5-0.4,0.7-0.6c0.2-0.2,0.5-0.3,0.8-0.4    c0.2-0.1,0.6-0.2,0.8-0.3c0.2-0.1,0.5-0.1,0.7-0.1c0.4,0,0.8,0.1,1.2,0.2c0.3,0.1,0.6,0.3,0.8,0.6c0.2,0.2,0.4,0.5,0.5,0.9    c0.1,0.4,0.1,0.9,0.1,1.3v7.2L-6.3-5.4z"></path>
	</g>
	<g id="Grupo_98" transform="translate(727.031 732.063)">
		<path id="Trazado_118" class="st0" d="M-8.4-10.6c0,0.7-0.1,1.4-0.4,2.1c-0.4,1.3-1.4,2.3-2.6,2.8c-0.7,0.3-1.5,0.4-2.3,0.4    c-0.7,0-1.5-0.1-2.1-0.3c-0.6-0.2-1-0.5-1.5-0.9s-0.7-1-0.9-1.5c-0.2-0.6-0.3-1.4-0.3-2.1c0-0.7,0.1-1.5,0.4-2.1    c0.4-1.2,1.4-2.3,2.6-2.7c0.7-0.2,1.5-0.4,2.2-0.4c0.7,0,1.5,0.1,2.1,0.3c0.6,0.2,1.1,0.5,1.5,0.9s0.7,0.9,0.9,1.5    C-8.5-12-8.4-11.3-8.4-10.6z M-11.9-10.5c0-0.4,0-0.8-0.1-1.2c-0.1-0.3-0.1-0.6-0.2-0.8c-0.2-0.2-0.3-0.3-0.5-0.4    c-0.2-0.1-0.4-0.1-0.7-0.1c-0.4,0-0.9,0.2-1.1,0.6c-0.3,0.6-0.4,1.2-0.4,1.9c0,0.4,0,0.9,0.1,1.4c0.1,0.3,0.1,0.6,0.2,0.9    c0.1,0.2,0.2,0.4,0.4,0.5c0.2,0.1,0.4,0.1,0.7,0.1s0.5-0.1,0.7-0.2c0.2-0.1,0.4-0.3,0.5-0.5c0.1-0.2,0.2-0.6,0.2-0.9    C-12-9.6-11.9-10-11.9-10.5L-11.9-10.5z"></path>
	</g>
	<g id="Grupo_99" transform="translate(743.533 732.489)">
		<path id="Trazado_119" class="st0" d="M-19.7-10.6c0.1,0.2,0.1,0.4,0.1,0.6c0,0.2,0.1,0.3,0.1,0.5c0-0.2,0-0.3,0.1-0.5    c0.1-0.2,0.1-0.4,0.1-0.6l1.7-5h3.1l-3.7,9.7h-3.1l-3.4-9.7h3.6L-19.7-10.6z"></path>
	</g>
	<g id="Grupo_100" transform="translate(760.562 731.927)">
		<path id="Trazado_120" class="st0" d="M-25.8-6.4C-26-6.2-26.2-6-26.4-5.8c-0.2,0.1-0.4,0.2-0.6,0.4c-0.2,0.1-0.5,0.2-0.7,0.2    c-0.2,0.1-0.6,0.1-0.8,0.1c-0.4,0-0.7-0.1-1.1-0.2C-30-5.5-30.3-5.8-30.6-6c-0.2-0.3-0.5-0.6-0.6-1c-0.1-0.4-0.2-0.9-0.2-1.3    c0-0.2,0-0.4,0.1-0.7s0.2-0.4,0.3-0.6c0.2-0.2,0.4-0.4,0.6-0.5c0.3-0.2,0.7-0.3,1-0.4c0.5-0.1,1-0.2,1.5-0.3    c0.6-0.1,1.2-0.2,2-0.2v-1c0-0.1,0-0.2-0.1-0.4c0-0.1-0.1-0.2-0.1-0.2c0,0-0.1-0.1-0.1-0.1c-0.1,0-0.2,0-0.4,0    c-0.2,0-0.6,0-0.8,0.1c-0.2,0.1-0.6,0.1-0.8,0.2c-0.2,0.1-0.6,0.2-0.8,0.3c-0.2,0.1-0.6,0.3-0.8,0.5l-1.2-2    c0.4-0.2,0.7-0.5,1.2-0.7c0.4-0.2,0.8-0.4,1.2-0.5s0.9-0.2,1.4-0.3c0.5-0.1,1-0.1,1.5-0.1c0.6,0,1,0.1,1.5,0.2    c0.4,0.1,0.7,0.4,1,0.6c0.2,0.3,0.4,0.6,0.6,1c0.1,0.4,0.2,0.9,0.2,1.3v4.1c0,0.1,0,0.1,0.1,0.1c0.1,0.1,0.1,0.1,0.2,0.1    c0.1,0.1,0.2,0.1,0.3,0.1c0.1,0.1,0.3,0.1,0.6,0.1l-0.6,2.5c-0.2,0-0.4,0-0.5,0c-0.1,0-0.3,0-0.4,0c-0.4,0-0.8,0-1.2-0.1    c-0.3-0.1-0.6-0.1-0.8-0.2c-0.2-0.1-0.4-0.2-0.6-0.4C-25.6-6-25.7-6.2-25.8-6.4z M-26.8-9.3c-0.2,0.1-0.4,0.1-0.6,0.1    c-0.1,0-0.2,0.1-0.4,0.1C-27.8-9-27.9-8.9-28-8.8s-0.1,0.1-0.1,0.2c-0.1,0.2,0,0.4,0.1,0.7c0.1,0.1,0.1,0.2,0.2,0.3    c0.1,0.1,0.2,0.2,0.2,0.2c0.1,0.1,0.2,0.1,0.4,0.1c0.1,0,0.3,0,0.4-0.1c0.1,0,0.2-0.1,0.4-0.1c0.1-0.1,0.2-0.1,0.3-0.2    c0.1-0.1,0.2-0.1,0.2-0.2v-1.4C-26.2-9.3-26.5-9.3-26.8-9.3L-26.8-9.3z"></path>
	</g>
	<g id="Grupo_101" transform="translate(777.025 727.357)">
		<path id="Trazado_121" class="st0" d="M-31.8-0.7c-0.6,0.1-1.3,0.2-2,0.2c-0.4,0-0.9-0.1-1.2-0.1c-0.3-0.1-0.6-0.2-0.9-0.5    c-0.2-0.2-0.4-0.5-0.6-0.8c-0.1-0.4-0.2-0.8-0.2-1.2v-4.9l-1.1-0.1l0.2-2.3h1l0.4-2.9l3-0.2v3.1h2.5l-0.2,2.4h-2.3v4.7    c0,0.1,0,0.2,0.1,0.2c0.1,0.1,0.2,0.1,0.3,0.1s0.2,0,0.4,0s0.3,0,0.5-0.1c0.2-0.1,0.3-0.1,0.5-0.1c0.1,0,0.3-0.1,0.4-0.1l0.6,2.1    C-30.9-1-31.3-0.9-31.8-0.7z"></path>
	</g>
	<g id="Grupo_102" transform="translate(790.781 725.245)">
		<path id="Trazado_122" class="st0" d="M-43,1.4v-9.7l3.4-0.2v9.8L-43,1.4L-43,1.4z M-43-9.9v-2.9h3.3v2.9H-43z"></path>
	</g>
	<g id="Grupo_103" transform="translate(798.61 732.063)">
		<path id="Trazado_123" class="st0" d="M-36.1-10.6c0,0.7-0.1,1.4-0.4,2.1c-0.4,1.3-1.4,2.3-2.6,2.8c-0.7,0.3-1.5,0.4-2.3,0.4    c-0.7,0-1.5-0.1-2.1-0.3c-0.6-0.2-1-0.5-1.5-0.9c-0.4-0.4-0.7-1-0.9-1.5c-0.2-0.6-0.2-1.4-0.2-2.1c0-0.7,0.1-1.5,0.4-2.1    c0.4-1.2,1.4-2.3,2.6-2.7c0.7-0.2,1.5-0.4,2.2-0.4c0.7,0,1.5,0.1,2.1,0.3c0.6,0.2,1.1,0.5,1.5,0.9s0.7,0.9,0.9,1.5    C-36.1-12-36-11.3-36.1-10.6z M-39.6-10.5c0-0.4,0-0.8-0.1-1.2c-0.1-0.3-0.1-0.6-0.2-0.8c-0.2-0.2-0.3-0.3-0.5-0.4    c-0.2-0.1-0.4-0.1-0.7-0.1c-0.4,0-0.9,0.2-1.1,0.6c-0.3,0.6-0.4,1.2-0.4,1.9c0,0.4,0,0.9,0.1,1.4c0.1,0.3,0.1,0.6,0.2,0.9    c0.1,0.2,0.2,0.4,0.4,0.5c0.2,0.1,0.4,0.1,0.7,0.1s0.5-0.1,0.7-0.2c0.2-0.1,0.4-0.3,0.5-0.5c0.1-0.2,0.2-0.6,0.2-0.9    C-39.6-9.6-39.6-10-39.6-10.5L-39.6-10.5z"></path>
	</g>
	<g id="Grupo_104" transform="translate(817.312 731.991)">
		<path id="Trazado_124" class="st0" d="M-47.7-5.4v-6.4c0-0.1,0-0.2,0-0.3c-0.1-0.1-0.1-0.2-0.2-0.2c0,0-0.1-0.1-0.1-0.1    c-0.1,0-0.2-0.1-0.3-0.1c-0.2,0-0.5,0.1-0.7,0.2c-0.2,0.1-0.6,0.4-0.8,0.6v6.3h-3.4v-9.8l3-0.2c0.1,0.1,0.1,0.2,0.1,0.3    c0,0.1,0.1,0.2,0.1,0.3c0,0.1,0.1,0.2,0.1,0.4S-50-14.1-50-14c0.2-0.2,0.5-0.4,0.7-0.6c0.2-0.2,0.5-0.3,0.8-0.4    c0.2-0.1,0.6-0.2,0.8-0.3c0.2-0.1,0.5-0.1,0.7-0.1c0.4,0,0.8,0.1,1.2,0.2c0.3,0.1,0.6,0.3,0.8,0.6c0.2,0.2,0.4,0.5,0.5,0.9    c0.1,0.4,0.1,0.9,0.1,1.3v7.2L-47.7-5.4z"></path>
	</g>
</g>
</svg>
