<?xml version="1.0" encoding="UTF-8"?>
<svg xmlns="http://www.w3.org/2000/svg" id="Layer_1" data-name="Layer 1" viewBox="0 0 97.72 44.09">
  <path d="M31.67,26h1.2v-7.9h-1.2V16h6.79c2.46,0,4.25,1.16,4.25,3.88s-1.79,3.88-4.25,3.88h-2.2V26h1.63v2.11H31.67V26Zm4.59-4.36h1.2a1.59,1.59,0,0,0,1.79-1.8c0-1.26-.5-1.74-1.69-1.74h-1.3v3.54Z" style="fill:#004fa3;fill-rule:evenodd"></path>
  <path d="M46.27,24.52c0,.88.2,1.9,1.3,1.9a1,1,0,0,0,1.2-.92H52a1.74,1.74,0,0,1-.1.38c-.63,2-2.4,2.45-4.29,2.45-2.9,0-4.62-1.74-4.62-4.7A4.26,4.26,0,0,1,47.47,19c2.63,0,3.72,1.13,4.19,2.35a10.05,10.05,0,0,1,.43,3.17Zm2.53-1.84c0-.92-.2-1.77-1.33-1.77s-1.2.88-1.2,1.77Z" style="fill:#004fa3;fill-rule:evenodd"></path>
  <path d="M53.32,26.08h1V21.25h-1v-2h4.09V21h0a3.17,3.17,0,0,1,3.29-2,2.57,2.57,0,0,1,2.86,2.73v4.35h.93v2H59.37v-2h.84V22.61c0-.78-.4-1.33-1.17-1.33a1.24,1.24,0,0,0-1.29,1.36v3.44h.76v2H53.32v-2Z" style="fill:#004fa3;fill-rule:evenodd"></path>
  <path d="M64.93,19.24h1.13V17.61l3.39-1.19v2.82h2.16v2H69.45v4.29c0,.34.1.68.53.68s.54-.68.54-1.09v-.34h1.79v.82c-.17,2.07-1.26,2.72-3,2.72-2.5,0-3.23-1.09-3.23-3.44V21.25H64.93v-2Z" style="fill:#004fa3;fill-rule:evenodd"></path>
  <path d="M73.51,22.1A2.85,2.85,0,0,1,75,19.65,5.69,5.69,0,0,1,77.83,19c2.3,0,4.49.55,4.49,3.17v3.91h1v2H79.43V26.73h0a3.2,3.2,0,0,1-3.06,1.6c-1.64,0-3.26-.85-3.26-2.76s1.69-2.86,3.32-3c.47,0,.93-.07,1.4-.07s1,0,1.43,0a2.61,2.61,0,0,0-.2-1.3,1.1,1.1,0,0,0-1-.58,1.25,1.25,0,0,0-1.3,1.4Zm3.89,4.32a2.08,2.08,0,0,0,1.93-2.24,7.71,7.71,0,0,0-1.93.1c-.67.13-1.2.48-1.2,1.26s.63.88,1.2.88Z" style="fill:#004fa3;fill-rule:evenodd"></path>
  <path d="M84.12,26.08h1V21.25h-1v-2h4.39v6.84h.93v2H84.12v-2Zm1-10.52h3.4v2.76h-3.4V15.56Z" style="fill:#004fa3;fill-rule:evenodd"></path>
  <path d="M90.17,26.08h1V21.25h-1v-2h4.12v2.14h.07a3,3,0,0,1,.13-.47A2.58,2.58,0,0,1,96.79,19a3.7,3.7,0,0,1,.93.1v3.14a5,5,0,0,0-1.06-.11,1.94,1.94,0,0,0-2.1,2.15v1.8h1.26v2H90.17v-2Z" style="fill:#004fa3;fill-rule:evenodd"></path>
  <polygon points="12.62 16.46 16.83 12.25 16.83 20.66 12.62 16.46 12.62 24.87 8.41 20.66 8.41 32.88 24.84 16.46 8.41 0 8.41 12.25 12.62 8.04 12.62 16.46 12.62 16.46" style="fill:#004fa3;fill-rule:evenodd"></polygon>
  <polygon points="12.62 16.46 4.21 8.04 4.21 16.46 8.41 12.25 8.41 20.66 12.62 16.46 12.62 16.46" style="fill:#00ab67;fill-rule:evenodd"></polygon>
  <polygon points="0 12.25 8.41 20.66 4.21 24.87 4.21 16.46 0 20.66 0 12.25 0 12.25" style="fill:#00ab67;fill-rule:evenodd"></polygon>
  <path d="M48.83,34h-.67l-2.45,9.87H41.87l-1.59-9.4h0l-1.62,9.4h-3.9L32.37,34H31.7V31.88h5.24V34H35.6l1.28,7.16h0l1.85-9.25h3.58l1.76,9.25h0L45.45,34H44.14V31.88h4.69Z" style="fill:#004fa3;fill-rule:evenodd"></path>
  <path d="M49.17,37.93a2.81,2.81,0,0,1,1.41-2.43,5.56,5.56,0,0,1,2.8-.64c2.22,0,4.35.55,4.35,3.15v3.85h1v2H54.93V42.52h0a3.12,3.12,0,0,1-3,1.57c-1.61,0-3.18-.86-3.18-2.72s1.64-2.81,3.23-2.92c.46,0,.92-.08,1.37-.08l1.4,0a2.62,2.62,0,0,0-.2-1.28,1.07,1.07,0,0,0-1-.55,1.2,1.2,0,0,0-1.25,1.37ZM53,42.21A2,2,0,0,0,54.82,40a7.69,7.69,0,0,0-1.88.07c-.64.15-1.15.5-1.15,1.25S52.39,42.21,53,42.21Z" style="fill:#004fa3;fill-rule:evenodd"></path>
  <path d="M59.62,35.12h1.09V33.49L64,32.3v2.82h2.1v2H64v4.24c0,.35.11.68.52.68s.51-.69.51-1.08V40.6h1.74a5.47,5.47,0,0,1,0,.81c-.14,2-1.21,2.68-2.94,2.68-2.42,0-3.14-1.07-3.14-3.4v-3.6H59.62Z" style="fill:#004fa3;fill-rule:evenodd"></path>
  <path d="M71,40.31c0,.9.21,1.9,1.27,1.9a1.07,1.07,0,0,0,1.18-.91h3.09c0,.13,0,.25-.07.38-.64,2-2.37,2.41-4.2,2.41-2.82,0-4.49-1.71-4.49-4.64s1.67-4.59,4.4-4.59c2.56,0,3.63,1.12,4.09,2.34a10,10,0,0,1,.42,3.11Zm2.47-1.79c0-.93-.2-1.77-1.29-1.77S71,37.64,71,38.52Z" style="fill:#004fa3;fill-rule:evenodd"></path>
  <path d="M77.83,41.86h1V37.09h-1v-2h4v2.1h0a2.44,2.44,0,0,1,.14-.46,2.52,2.52,0,0,1,2.24-1.9,2.75,2.75,0,0,1,.89.13v3.09a3.47,3.47,0,0,0-1-.13,1.9,1.9,0,0,0-2,2.12v1.79h1.21v2H77.83Z" style="fill:#004fa3;fill-rule:evenodd"></path>
  <path d="M48.83,34h-.67l-2.45,9.87H41.87l-1.59-9.4h0l-1.62,9.4h-3.9L32.37,34H31.7V31.88h5.24V34H35.6l1.28,7.16h0l1.85-9.25h3.58l1.76,9.25h0L45.45,34H44.14V31.88h4.69Z" style="fill:#004fa3;fill-rule:evenodd"></path>
  <path d="M49.17,37.93a2.81,2.81,0,0,1,1.41-2.43,5.56,5.56,0,0,1,2.8-.64c2.22,0,4.35.55,4.35,3.15v3.85h1v2H54.93V42.52h0a3.12,3.12,0,0,1-3,1.57c-1.61,0-3.18-.86-3.18-2.72s1.64-2.81,3.23-2.92c.46,0,.92-.08,1.37-.08l1.4,0a2.62,2.62,0,0,0-.2-1.28,1.07,1.07,0,0,0-1-.55,1.2,1.2,0,0,0-1.25,1.37ZM53,42.21A2,2,0,0,0,54.82,40a7.69,7.69,0,0,0-1.88.07c-.64.15-1.15.5-1.15,1.25S52.39,42.21,53,42.21Z" style="fill:#004fa3;fill-rule:evenodd"></path>
  <path d="M59.62,35.12h1.09V33.49L64,32.3v2.82h2.1v2H64v4.24c0,.35.11.68.52.68s.51-.69.51-1.08V40.6h1.74a5.47,5.47,0,0,1,0,.81c-.14,2-1.21,2.68-2.94,2.68-2.42,0-3.14-1.07-3.14-3.4v-3.6H59.62Z" style="fill:#004fa3;fill-rule:evenodd"></path>
  <path d="M71,40.31c0,.9.21,1.9,1.27,1.9a1.07,1.07,0,0,0,1.18-.91h3.09c0,.13,0,.25-.07.38-.64,2-2.37,2.41-4.2,2.41-2.82,0-4.49-1.71-4.49-4.64s1.67-4.59,4.4-4.59c2.56,0,3.63,1.12,4.09,2.34a10,10,0,0,1,.42,3.11Zm2.47-1.79c0-.93-.2-1.77-1.29-1.77S71,37.64,71,38.52Z" style="fill:#004fa3;fill-rule:evenodd"></path>
  <path d="M77.83,41.86h1V37.09h-1v-2h4v2.1h0a2.44,2.44,0,0,1,.14-.46,2.52,2.52,0,0,1,2.24-1.9,2.75,2.75,0,0,1,.89.13v3.09a3.47,3.47,0,0,0-1-.13,1.9,1.9,0,0,0-2,2.12v1.79h1.21v2H77.83Z" style="fill:#004fa3;fill-rule:evenodd"></path>
  <path d="M86.8,37.55V35h-1v-.34h2.29V35h-.95v2.53Z" style="fill:#004fa3"></path>
  <path d="M88.58,37.55V34.68h.57l.69,2,.14.42c0-.1.09-.25.16-.45l.7-2h.5v2.87H91v-2.4l-.85,2.4h-.34L89,35.12v2.43Z" style="fill:#004fa3"></path>
</svg>
